<svg width="765" height="521" viewBox="0 0 765 521" fill="none" xmlns="http://www.w3.org/2000/svg">
<path d="M375.579 0.841264L362.134 55.0954L390 55.6375L375.579 0.841264Z" fill="#FFC738"/>
<path d="M237.78 466.492C288.038 456.07 317.685 360.873 326.226 314.577L399.918 316.01C400.57 384.415 472.509 448.343 508.398 471.756C350.123 557.389 262.038 503.927 237.78 466.492Z" fill="#352828"/>
<ellipse cx="373.567" cy="104.258" rx="45.8341" ry="71.2286" transform="rotate(1.1144 373.567 104.258)" fill="#352828"/>
<rect x="327.031" y="139.903" width="91.6682" height="212.734" transform="rotate(1.1144 327.031 139.903)" fill="#352828"/>
<ellipse cx="371.03" cy="266.517" rx="78.6612" ry="152.987" transform="rotate(1.1144 371.03 266.517)" fill="#352828"/>
<path d="M750.064 65.2192C634.727 145.84 464.314 155.317 393.524 149.978L410.584 276.814C569.995 309.206 748.627 139.056 761.108 86.6596C771.093 44.7423 757.906 54.9005 750.064 65.2192Z" fill="#352828"/>
<path d="M14.7913 72.2192C130.128 152.84 300.541 162.317 371.331 156.978L354.271 283.814C194.86 316.206 16.2276 146.056 3.74661 93.6596C-6.23821 51.7423 6.9494 61.9005 14.7913 72.2192Z" fill="#352828"/>
</svg>
